<svg width="6" height="6" viewBox="0 0 6 6" fill="none" xmlns="http://www.w3.org/2000/svg">
<g clip-path="url(#clip0_1_7092)">
<path d="M4.45827 0.275879H0.853087C0.418212 0.275879 0.0644531 0.629638 0.0644531 1.06451V4.6697C0.0644531 5.10457 0.418324 5.45833 0.853087 5.45833V5.44808C0.945132 5.45833 1.11243 5.45833 1.4164 5.45833H4.45827C4.89315 5.45833 5.2469 5.10446 5.2469 4.6697V1.06451C5.2469 0.629638 4.89303 0.275879 4.45827 0.275879ZM5.02158 4.6697C5.02158 4.9803 4.76888 5.23301 4.45827 5.23301C4.45827 5.23301 0.877985 5.23301 0.853087 5.23301C0.542478 5.23301 0.289777 4.9803 0.289777 4.6697V1.06451C0.289777 0.753904 0.542478 0.501203 0.853087 0.501203H4.45827C4.76888 0.501203 5.02158 0.753904 5.02158 1.06451V4.6697Z" fill="#333232"/>
<path d="M2.57215 1.11182C1.65034 1.11182 0.900391 1.86177 0.900391 2.78357C0.900391 3.70538 1.65034 4.45533 2.57215 4.45533C3.49396 4.45533 4.24391 3.70538 4.24391 2.78357C4.24391 1.86177 3.49396 1.11182 2.57215 1.11182ZM2.57215 4.23243C1.77327 4.23243 1.12329 3.58245 1.12329 2.78357C1.12329 1.9847 1.77327 1.33472 2.57215 1.33472C3.37103 1.33472 4.02101 1.9847 4.02101 2.78357C4.02101 3.58245 3.37103 4.23243 2.57215 4.23243Z" fill="#333232"/>
<path d="M2.57141 1.78076C2.01839 1.78076 1.56836 2.23079 1.56836 2.78382C1.56836 3.33684 2.01839 3.78687 2.57141 3.78687C3.12444 3.78687 3.57447 3.33684 3.57447 2.78382C3.57447 2.23079 3.12444 1.78076 2.57141 1.78076ZM2.57141 3.56513C2.14057 3.56513 1.7901 3.21466 1.7901 2.78382C1.7901 2.35297 2.14057 2.0025 2.57141 2.0025C3.00226 2.0025 3.35273 2.35297 3.35273 2.78382C3.35273 3.21466 3.00226 3.56513 2.57141 3.56513Z" fill="#333232"/>
<path d="M4.32889 1.4483C4.46738 1.4483 4.57965 1.33603 4.57965 1.19754C4.57965 1.05905 4.46738 0.946777 4.32889 0.946777C4.1904 0.946777 4.07812 1.05905 4.07812 1.19754C4.07812 1.33603 4.1904 1.4483 4.32889 1.4483Z" fill="#333232"/>
</g>
<defs>
<clipPath id="clip0_1_7092">
<rect width="5.18245" height="5.18245" fill="white" transform="translate(0.0644531 0.276367)"/>
</clipPath>
</defs>
</svg>
