<svg width="6" height="6" viewBox="0 0 6 6" fill="none" xmlns="http://www.w3.org/2000/svg">
<g clip-path="url(#clip0_1_7113)">
<path d="M4.07957 1.46921L1.9387 2.81148C1.81755 2.88761 1.76022 3.03798 1.79925 3.17706L2.03074 4.00505C2.05051 4.07564 2.11222 4.12257 2.18323 4.12257C2.18719 4.12257 2.19118 4.12242 2.19519 4.12212C2.27109 4.11651 2.33116 4.05896 2.34126 3.98224L2.40145 3.52824C2.40956 3.46716 2.43848 3.41034 2.48279 3.36834L4.24947 1.6966C4.30286 1.6462 4.30992 1.56369 4.26592 1.50466C4.22186 1.44558 4.14179 1.43031 4.07957 1.46921ZM2.34153 3.21376C2.26215 3.28899 2.21043 3.39063 2.19591 3.49999L2.16672 3.72021L1.99869 3.11918C1.98503 3.07049 2.00514 3.01784 2.04754 2.9912L3.61589 2.0079L2.34153 3.21376Z" fill="#333232"/>
<path d="M5.21337 0.66757C5.14678 0.611442 5.05489 0.59599 4.9735 0.627255L0.267877 2.43254C0.174684 2.46828 0.114761 2.55555 0.115237 2.65485C0.115723 2.75424 0.176526 2.84102 0.270265 2.87595L1.36941 3.28393L1.79817 4.65519C1.82171 4.73057 1.88114 4.78915 1.95711 4.81188C2.03305 4.83459 2.11506 4.81835 2.17635 4.76849L2.81546 4.25036C2.84615 4.22547 2.88997 4.22424 2.92202 4.24739L4.07474 5.07967C4.11621 5.10964 4.16515 5.12508 4.21466 5.12508C4.24366 5.12508 4.27285 5.11978 4.30087 5.10901C4.37664 5.07987 4.43174 5.01527 4.44824 4.93624L5.29271 0.896606C5.31044 0.811547 5.28005 0.72379 5.21337 0.66757ZM5.09055 0.854881L4.2461 4.89451C4.24304 4.90911 4.23247 4.91518 4.22644 4.9175C4.22037 4.91984 4.20837 4.92242 4.1961 4.91355L3.04334 4.08123C2.99181 4.04402 2.93122 4.02555 2.87074 4.02555C2.80477 4.02555 2.73888 4.04754 2.68503 4.09117L2.04579 4.60943C2.03441 4.61869 2.0226 4.61704 2.01659 4.61523C2.01054 4.61342 1.99974 4.60829 1.99534 4.59424L1.55155 3.17485C1.54206 3.14452 1.51898 3.12026 1.48906 3.10915L0.342597 2.68362C0.32543 2.67723 0.321776 2.66391 0.321725 2.65385C0.321675 2.64389 0.325197 2.63063 0.342202 2.62411L5.04784 0.818835C5.04786 0.818824 5.04789 0.818814 5.04792 0.818804C5.0632 0.812936 5.07451 0.81968 5.07989 0.82421C5.0853 0.82879 5.0939 0.838856 5.09055 0.854881Z" fill="#333232"/>
<path d="M4.39893 2.78752C4.357 2.773 4.31566 2.81542 4.30656 2.88225L4.29475 2.96892C4.28565 3.03575 4.31226 3.10167 4.35418 3.11618C4.35973 3.1181 4.36527 3.11902 4.37073 3.11902C4.40648 3.11902 4.43866 3.07942 4.44656 3.02146L4.45836 2.93479C4.46746 2.86796 4.44084 2.80203 4.39893 2.78752Z" fill="#333232"/>
<path d="M4.36861 3.2876C4.30559 3.27515 4.24355 3.31153 4.22989 3.36885L3.96166 4.49382C3.948 4.55114 3.98795 4.60768 4.05088 4.62013C4.05923 4.62177 4.06754 4.62256 4.07574 4.62256C4.12944 4.62256 4.17773 4.5886 4.1896 4.53889L4.45783 3.4139C4.4715 3.35658 4.43155 3.30004 4.36861 3.2876Z" fill="#333232"/>
</g>
<defs>
<clipPath id="clip0_1_7113">
<rect width="5.18245" height="5.18245" fill="white" transform="translate(0.117188 0.276367)"/>
</clipPath>
</defs>
</svg>
