<svg width="6" height="6" viewBox="0 0 6 6" fill="none" xmlns="http://www.w3.org/2000/svg">
<g clip-path="url(#clip0_1_7105)">
<path d="M3.58597 0.275879H2.61058C1.58897 0.275879 0.757812 1.11684 0.757812 2.15055V3.03977C0.757812 3.80957 1.22522 4.50141 1.92804 4.78317V5.35964C1.92804 5.39872 1.95077 5.43405 1.98607 5.44984C1.99874 5.45557 2.0122 5.45833 2.02556 5.45833C2.04926 5.45833 2.07276 5.44955 2.091 5.43277L2.65651 4.91443H3.58597C4.60758 4.91443 5.43874 4.07347 5.43874 3.03977V2.15055C5.43874 1.11684 4.60758 0.275879 3.58597 0.275879ZM5.2437 3.03977C5.2437 3.96462 4.50011 4.71705 3.58597 4.71705H2.61887C2.59468 4.71705 2.57138 4.72613 2.55343 4.74261L2.12308 5.13708V4.71478C2.12308 4.67293 2.09704 4.63563 2.05804 4.62181C1.39705 4.38524 0.952851 3.74947 0.952851 3.03977V2.15055C0.952851 1.2257 1.69653 0.473264 2.61058 0.473264H3.58597C4.50011 0.473264 5.2437 1.2257 5.2437 2.15055V3.03977Z" fill="#333232"/>
<path d="M4.55591 3.27205L3.93775 2.88386C3.87016 2.84137 3.7897 2.82697 3.71094 2.84273C3.63209 2.85877 3.5643 2.9038 3.52034 2.96943L3.49128 3.01261C3.22373 2.92713 2.92873 2.81793 2.75211 2.32365L2.82524 2.26219C2.95076 2.15668 2.96394 1.97212 2.85481 1.85056L2.37122 1.31272C2.33481 1.27217 2.27124 1.26799 2.2293 1.30309L1.92565 1.55825C1.65931 1.78211 1.78373 2.11322 1.82467 2.22203C1.82648 2.22689 1.82869 2.23156 1.8313 2.23613C1.84186 2.25441 2.09402 2.68947 2.50127 3.0905C2.91012 3.49318 3.64828 3.86504 3.67091 3.87583C3.7552 3.92873 3.85004 3.95411 3.94389 3.95411C4.10864 3.95411 4.27017 3.87602 4.36652 3.73288L4.58559 3.40673C4.61576 3.36152 4.60248 3.30132 4.55591 3.27205ZM4.19775 3.62689C4.10713 3.76186 3.91985 3.80018 3.77199 3.70799C3.76465 3.70429 3.03132 3.33507 2.64479 2.95436C2.28351 2.59855 2.04363 2.20326 2.01094 2.14813C1.93128 1.93215 1.94536 1.79941 2.05761 1.70509L2.28542 1.51372L2.70303 1.97815C2.74014 2.01938 2.73582 2.07967 2.69337 2.11535L2.56996 2.21902C2.53989 2.2443 2.52802 2.28426 2.53979 2.32102C2.7502 2.98208 3.15936 3.11189 3.45808 3.20671L3.50164 3.22061C3.54519 3.23481 3.59286 3.21857 3.61781 3.18142L3.68912 3.07523C3.7038 3.05326 3.72633 3.03838 3.75248 3.03303C3.77873 3.02759 3.80549 3.03264 3.82822 3.04694L4.3621 3.38213L4.19775 3.62689Z" fill="#333232"/>
<path d="M3.37608 1.95114C3.32997 1.9379 3.28204 1.96464 3.26895 2.01068C3.25586 2.05664 3.28256 2.1045 3.32859 2.11756C3.45773 2.15426 3.56062 2.25716 3.59702 2.38619C3.60777 2.42427 3.64253 2.44928 3.68041 2.44928C3.68821 2.44928 3.6961 2.44824 3.70398 2.44608C3.75001 2.4331 3.77688 2.38533 3.76388 2.33929C3.71126 2.15287 3.56261 2.00411 3.37608 1.95114Z" fill="#333232"/>
<path d="M4.16829 2.44837C4.17732 2.44837 4.18644 2.44717 4.19557 2.44466C4.24893 2.42965 4.27993 2.37428 4.26488 2.32112C4.14652 1.90234 3.81262 1.56836 3.39335 1.44922C3.34009 1.4339 3.28462 1.46504 3.26947 1.5182C3.25433 1.57136 3.28522 1.62672 3.33848 1.64184C3.69125 1.74195 3.9722 2.02318 4.0718 2.37548C4.08434 2.41953 4.12446 2.44837 4.16829 2.44837Z" fill="#333232"/>
<path d="M3.3928 0.948236C3.33971 0.932999 3.28452 0.963771 3.26945 1.01685C3.25439 1.06973 3.28512 1.1248 3.33811 1.13984C3.93277 1.30864 4.40649 1.78248 4.57434 2.37632C4.58671 2.42014 4.62673 2.44892 4.67034 2.44892C4.67932 2.44892 4.6884 2.44772 4.69748 2.44523C4.75047 2.4303 4.7814 2.37522 4.76644 2.32234C4.57992 1.66238 4.05362 1.13596 3.3928 0.948236Z" fill="#333232"/>
</g>
<defs>
<clipPath id="clip0_1_7105">
<rect width="5.18245" height="5.18245" fill="white" transform="translate(0.589844 0.276367)"/>
</clipPath>
</defs>
</svg>
